<svg xmlns="http://www.w3.org/2000/svg" viewBox="0 0 488.8 488.8" width="512" height="512"><g fill="#91DC5A"><path d="M45.7 258.3V453c0 19.7 16.1 35.8 35.8 35.8h325.8c19.7 0 35.8-16.1 35.8-35.8V258.3c0-19.7-16.1-35.8-35.8-35.8h-25.2v-84.8C382.1 61.8 320.3 0 244.4 0S106.7 61.8 106.7 137.7c0 6.8 5.5 12.3 12.3 12.3s12.3-5.5 12.3-12.3c0-62.4 50.8-113.2 113.2-113.2s113.2 50.8 113.2 113.2v84.8H81.5c-19.7.1-35.8 16.1-35.8 35.8zm372.9 0V453c0 6.2-5.1 11.3-11.3 11.3H81.5c-6.2 0-11.3-5.1-11.3-11.3V258.3c0-6.2 5.1-11.3 11.3-11.3h325.8c6.2.1 11.3 5.1 11.3 11.3z"/><path d="M244.4 405.5c27.5 0 49.9-22.4 49.9-49.9s-22.4-49.9-49.9-49.9-49.9 22.4-49.9 49.9c0 27.6 22.4 49.9 49.9 49.9zm0-75.2c14 0 25.4 11.4 25.4 25.4S258.4 381 244.4 381 219 369.6 219 355.6s11.4-25.3 25.4-25.3z"/></g></svg>